<svg xmlns="http://www.w3.org/2000/svg" width="1200" height="800" viewBox="0 0 1200 800" role="img" aria-labelledby="title desc">
<title id="title">AirClaim Vault</title><desc id="desc">Capa ilustrativa profissional para um desk de organização de solicitações por interrupção de voo.</desc>
<defs><linearGradient id="bg" x1="0" y1="0" x2="1" y2="1"><stop stop-color="#07182d"/><stop offset=".55" stop-color="#123c66"/><stop offset="1" stop-color="#147a9f"/></linearGradient><radialGradient id="glow" cx=".82" cy=".15" r=".65"><stop stop-color="#74ddff" stop-opacity=".55"/><stop offset="1" stop-color="#74ddff" stop-opacity="0"/></radialGradient><filter id="shadow"><feDropShadow dx="0" dy="18" stdDeviation="22" flood-opacity=".3"/></filter></defs>
<rect width="1200" height="800" rx="44" fill="url(#bg)"/><rect width="1200" height="800" rx="44" fill="url(#glow)"/>
<g opacity=".12" stroke="#fff"><path d="M0 620C260 500 470 720 760 570s360-70 440-20" fill="none" stroke-width="3"/><path d="M0 670C280 550 480 760 780 620s340-90 420-35" fill="none"/></g>
<g transform="translate(760 135)" filter="url(#shadow)"><rect width="350" height="500" rx="28" fill="#fff" fill-opacity=".11" stroke="#bcecff" stroke-opacity=".55"/><rect x="35" y="42" width="280" height="74" rx="16" fill="#fff" fill-opacity=".1"/><path d="M82 80h170" stroke="#dff7ff" stroke-width="13" stroke-linecap="round" opacity=".85"/><path d="M260 166c-37 26-73 53-108 82l-74-18-21 18 69 37-24 48-35-4-14 13 49 25 24 49 14-13-4-36 48-24 37 69 18-21-18-74c29-35 56-71 82-108 13-19 16-37 5-48-11-11-29-8-48 5Z" fill="#fff"/><rect x="35" y="438" width="132" height="18" rx="9" fill="#82e6ff"/><rect x="180" y="438" width="135" height="18" rx="9" fill="#fff" fill-opacity=".25"/></g>
<g transform="translate(82 86)"><rect width="235" height="42" rx="21" fill="#fff" fill-opacity=".1" stroke="#fff" stroke-opacity=".2"/><text x="117" y="28" text-anchor="middle" fill="#d9f4ff" font-family="Inter,Segoe UI,Arial" font-size="17" font-weight="700" letter-spacing="2">TRAVEL OPERATIONS</text><text y="148" fill="#fff" font-family="Inter,Segoe UI,Arial" font-size="78" font-weight="850">AirClaim</text><text y="236" fill="#75e1ff" font-family="Inter,Segoe UI,Arial" font-size="102" font-weight="900">VAULT</text><text y="296" fill="#d9e9f6" font-family="Inter,Segoe UI,Arial" font-size="28">Flight Disruption Claim Desk</text><line y1="342" x2="550" y2="342" stroke="#fff" stroke-opacity=".2"/><text y="396" fill="#fff" font-family="Inter,Segoe UI,Arial" font-size="22">Intake • evidence • expenses • follow-up</text><text y="580" fill="#bdd2e2" font-family="Inter,Segoe UI,Arial" font-size="19" letter-spacing="3">MARCELO RAMOS STUDIO</text></g>
</svg>