<svg xmlns="http://www.w3.org/2000/svg" width="1200" height="800" viewBox="0 0 1200 800" role="img" aria-labelledby="title desc">
<title id="title">Battery Passport Intake Desk</title><desc id="desc">Capa ilustrativa profissional para workbook de dados e evidências de fornecedores.</desc>
<defs><linearGradient id="bg" x1="0" y1="0" x2="1" y2="1"><stop stop-color="#071b22"/><stop offset=".55" stop-color="#0d3f47"/><stop offset="1" stop-color="#176953"/></linearGradient><radialGradient id="glow" cx=".8" cy=".12" r=".68"><stop stop-color="#74f2c0" stop-opacity=".48"/><stop offset="1" stop-color="#74f2c0" stop-opacity="0"/></radialGradient><filter id="shadow"><feDropShadow dx="0" dy="20" stdDeviation="24" flood-opacity=".3"/></filter></defs>
<rect width="1200" height="800" rx="44" fill="url(#bg)"/><rect width="1200" height="800" rx="44" fill="url(#glow)"/>
<g opacity=".12" stroke="#fff" fill="none"><path d="M720 85h410v620H720z"/><path d="M755 145h340M755 200h340M755 255h340M755 310h340M755 365h340M755 420h340M755 475h340M755 530h340"/></g>
<g transform="translate(790 155)" filter="url(#shadow)"><rect x="0" y="0" width="270" height="460" rx="34" fill="#fff" fill-opacity=".1" stroke="#b8ffe2" stroke-opacity=".55" stroke-width="4"/><rect x="102" y="-23" width="66" height="28" rx="9" fill="#b8ffe2"/><rect x="38" y="45" width="194" height="325" rx="20" fill="#0d2630" stroke="#b8ffe2" stroke-opacity=".45"/><path d="M138 93 89 193h42l-24 94 77-124h-46l31-70Z" fill="#79f1bd"/><rect x="54" y="394" width="162" height="17" rx="8" fill="#79f1bd"/><rect x="54" y="424" width="104" height="11" rx="5" fill="#fff" fill-opacity=".25"/></g>
<g transform="translate(80 82)"><rect width="320" height="42" rx="21" fill="#fff" fill-opacity=".1" stroke="#fff" stroke-opacity=".2"/><text x="160" y="28" text-anchor="middle" fill="#d9fff0" font-family="Inter,Segoe UI,Arial" font-size="16" font-weight="700" letter-spacing="1.8">SUPPLY CHAIN &amp; COMPLIANCE</text><text y="142" fill="#fff" font-family="Inter,Segoe UI,Arial" font-size="68" font-weight="850">Battery Passport</text><text y="224" fill="#7cf1be" font-family="Inter,Segoe UI,Arial" font-size="86" font-weight="900">INTAKE DESK</text><text y="284" fill="#d6eee7" font-family="Inter,Segoe UI,Arial" font-size="27">Supplier Data &amp; Evidence Workbook</text><line y1="332" x2="590" y2="332" stroke="#fff" stroke-opacity=".2"/><text y="386" fill="#fff" font-family="Inter,Segoe UI,Arial" font-size="22">Supplier intake • evidence • gaps • ownership</text><text y="584" fill="#b9d9ce" font-family="Inter,Segoe UI,Arial" font-size="19" letter-spacing="3">MARCELO RAMOS STUDIO</text></g>
</svg>